<svg width="75" height="75" viewBox="0 0 75 75" fill="none" xmlns="http://www.w3.org/2000/svg">
<path d="M69.8211 56.0985C69.8726 56.1488 69.9241 56.1995 69.976 56.2498C69.9062 56.2303 69.8363 56.2107 69.7668 56.1911C61.495 53.8731 53.8731 61.495 56.1911 69.7668C56.2107 69.8363 56.2303 69.9061 56.2498 69.976C56.1995 69.9241 56.1488 69.8726 56.0985 69.8211C50.094 63.6773 39.6823 66.4671 37.5535 74.79C37.5359 74.8599 37.518 74.9297 37.5 75C37.482 74.9297 37.4641 74.8599 37.4465 74.79C35.3178 66.4671 24.906 63.6773 18.9015 69.8211C18.8512 69.8726 18.8005 69.9241 18.7502 69.976C18.7697 69.9062 18.7893 69.8363 18.8089 69.7668C21.1269 61.495 13.505 53.8731 5.2332 56.1911C5.16375 56.2107 5.09389 56.2302 5.02399 56.2498C5.0759 56.1995 5.12741 56.1488 5.17888 56.0985C11.3227 50.094 8.53289 39.6823 0.209977 37.5535C0.140119 37.5359 0.07026 37.518 0 37.5C0.07026 37.482 0.140119 37.4641 0.209977 37.4465C8.53289 35.3178 11.3227 24.906 5.17888 18.9015C5.12737 18.8512 5.07586 18.8005 5.02399 18.7502C5.09385 18.7697 5.16371 18.7893 5.2332 18.8089C13.505 21.1269 21.1269 13.505 18.8089 5.2332C18.7893 5.16375 18.7697 5.09389 18.7502 5.02399C18.8005 5.0759 18.8512 5.12741 18.9015 5.17888C24.906 11.3227 35.3177 8.53289 37.4465 0.209977C37.4641 0.140118 37.482 0.07026 37.5 0C37.518 0.07026 37.5359 0.140118 37.5535 0.209977C39.6822 8.53289 50.094 11.3227 56.0985 5.17888C56.1488 5.12737 56.1995 5.07586 56.2498 5.02399C56.2303 5.09385 56.2107 5.16371 56.1911 5.2332C53.8731 13.505 61.495 21.1269 69.7668 18.8089C69.8363 18.7893 69.9061 18.7697 69.976 18.7502C69.9241 18.8005 69.8726 18.8512 69.8211 18.9015C63.6773 24.906 66.4671 35.3177 74.79 37.4465C74.8599 37.4641 74.9297 37.482 75 37.5C74.9297 37.518 74.8599 37.5359 74.79 37.5535C66.4671 39.6823 63.6773 50.094 69.8211 56.0985Z" fill="#80C2EC" fill-opacity="0.76"/>
<path d="M37.5002 61.5132C50.7623 61.5132 61.5133 50.7621 61.5133 37.5C61.5133 24.238 50.7623 13.4869 37.5002 13.4869C24.2381 13.4869 13.4871 24.238 13.4871 37.5C13.4871 50.7621 24.2381 61.5132 37.5002 61.5132Z" fill="url(#paint0_linear_86_363)"/>
<path d="M35.3411 53.4392L36.498 39.8487H29.6682L39.6591 21.5609L38.5021 35.1513H45.3319L35.3411 53.4392Z" fill="white" fill-opacity="0.85"/>
<defs>
<linearGradient id="paint0_linear_86_363" x1="37.5002" y1="13.4869" x2="37.5002" y2="61.5132" gradientUnits="userSpaceOnUse">
<stop stop-color="#67C3F3"/>
<stop offset="1" stop-color="#5A98F2"/>
</linearGradient>
</defs>
</svg>
