<svg width="75" height="75" viewBox="0 0 75 75" fill="none" xmlns="http://www.w3.org/2000/svg">
<path opacity="0.3" d="M65.8557 64.3115C64.3261 65.9218 62.8788 66.9603 61.7353 67.7807C48.294 77.425 32.3893 74.6138 29.0092 73.9272C24.0177 72.9134 14.3693 70.9538 7.39364 62.7506C-3.1599 50.3398 -1.51656 30.7871 6.66947 17.88C8.16683 15.5191 16.0763 2.41541 32.1522 0.314008C41.8812 -0.957734 53.2221 1.60723 61.4349 8.4879C78.6742 22.931 77.4469 52.1087 65.8557 64.3115Z" fill="url(#paint0_linear_87_426)"/>
<mask id="mask0_87_426" style="mask-type:luminance" maskUnits="userSpaceOnUse" x="0" y="0" width="75" height="75">
<path d="M37.5 75C58.2107 75 75 58.2107 75 37.5C75 16.7893 58.2107 0 37.5 0C16.7893 0 0 16.7893 0 37.5C0 58.2107 16.7893 75 37.5 75Z" fill="white"/>
</mask>
<g mask="url(#mask0_87_426)">
<path d="M87.3707 75.0001H7.97709C6.96081 75.0001 6.13696 74.1763 6.13696 73.16V57.7413C6.13696 57.2929 6.50044 56.9294 6.94882 56.9294H87.3707C87.8191 56.9294 88.1825 57.2929 88.1825 57.7413V74.1882C88.1826 74.6366 87.8191 75.0001 87.3707 75.0001Z" fill="url(#paint1_linear_87_426)"/>
<path d="M31.4778 41.9702C34.8787 40.2099 30.8573 35.5604 30.6737 35.3871L37.7555 35.9344C37.7555 35.9344 39.1648 38.8965 35.8997 42.8388C35.0736 43.8361 33.9577 43.7742 33.0022 44.0973C32.7352 42.8287 32.1359 42.5921 31.4778 41.9702Z" fill="url(#paint2_linear_87_426)"/>
<path d="M44.0376 28.1207C44.0376 28.1207 39.9866 25.1015 29.7002 29.8255C29.7002 29.8255 28.6081 31.0969 29.0319 32.5993C29.4558 34.1018 35.8349 44.2146 35.9098 47.9901C35.9098 47.9901 39.1621 48.7259 44.5681 46.5624C44.5681 46.5624 46.7633 36.6932 44.0376 28.1207Z" fill="url(#paint3_linear_87_426)"/>
<path d="M35.2039 23.0452L37.0193 27.4186C37.1695 27.746 37.1191 28.1326 36.8828 28.4046C36.4052 28.9542 35.426 29.6788 33.8298 29.1186C33.355 28.9519 33.0034 28.5453 32.9079 28.0513L32.2043 24.4112L35.2039 23.0452Z" fill="url(#paint4_linear_87_426)"/>
<path d="M29.5402 20.7184C29.532 20.811 31.0908 26.7547 31.0908 26.7547L34.4657 25.7926L33.8252 19.9396C33.8252 19.9396 29.6771 19.1685 29.5402 20.7184Z" fill="url(#paint5_linear_87_426)"/>
<path d="M33.1288 21.2902L33.7072 24.3449C33.7146 24.3841 33.7167 24.4231 33.7133 24.4628C33.6921 24.7059 33.558 25.537 32.7161 25.348C31.9521 25.1764 31.2524 25.0313 30.784 25.2033C30.5738 25.2805 30.4567 25.5043 30.5136 25.721C30.6553 26.261 30.9973 27.4719 31.4549 28.4786C31.5478 28.6829 31.7825 28.7799 31.9941 28.7053C32.6319 28.4805 33.9636 27.9688 34.9386 27.3062C35.0707 27.2165 35.1439 27.0633 35.1283 26.9044C35.0527 26.1293 34.8313 23.7729 34.8713 23.1067C34.9087 22.4814 35.6507 22.0671 35.9746 21.9153C36.0808 21.8655 36.1612 21.7753 36.1986 21.6641C36.3308 21.2712 36.4932 20.3698 35.3519 20.0672C35.113 20.0039 34.9754 19.7577 35.046 19.5209C35.1865 19.0494 35.2175 18.3401 34.3288 17.9993C33.4254 17.6529 32.7929 18.1592 32.4585 18.5608C32.3233 18.7232 32.094 18.7594 31.9094 18.6566C31.8043 18.598 31.6723 18.5842 31.5198 18.6914C31.3141 18.8358 31.0271 18.761 30.9048 18.5415C30.6697 18.1199 30.2138 17.6795 29.359 17.8749C27.842 18.2218 27.7623 19.9284 28.2212 20.9006C28.6801 21.8728 30.3034 21.4032 31.1006 20.8563C31.7067 20.4404 32.5422 20.795 32.908 20.9889C33.0238 21.0504 33.1044 21.1614 33.1288 21.2902Z" fill="url(#paint6_linear_87_426)"/>
<path d="M35.0707 24.221C35.0707 24.221 34.3438 22.4928 34.9667 22.0253C35.5897 21.5578 36.5601 21.729 36.4197 23.0179C36.2451 24.621 35.0707 24.221 35.0707 24.221Z" fill="url(#paint7_linear_87_426)"/>
<path d="M92.1915 59.5333H3.07034C2.73904 59.5333 2.47046 59.2648 2.47046 58.9335V54.9252C2.47046 54.5939 2.73904 54.3253 3.07034 54.3253H92.1915C92.5228 54.3253 92.7914 54.5939 92.7914 54.9252V58.9335C92.7914 59.2648 92.5228 59.5333 92.1915 59.5333Z" fill="url(#paint8_linear_87_426)"/>
<path d="M60.0531 52.9166C60.0531 52.9166 77.4358 52.8035 79.9045 52.7901C82.2403 52.7775 87.2552 53.2578 89.1376 55.4284C89.2987 55.6142 89.5907 55.6028 89.7403 55.4077L90.2427 54.7526C90.2427 54.7526 88.9312 53.6555 86.9437 52.0364C85.5794 50.9251 85.0487 50.2487 84.6664 49.9492C84.4914 49.8122 83.9942 49.8615 83.8128 49.99L83.0408 50.5371C82.5979 50.7441 82.0992 50.7986 81.6222 50.6917C79.0429 50.1139 70.4682 48.1851 68.6232 47.6673C66.4451 47.056 62.8685 47.1736 60.3891 49.1302C57.9097 51.0867 60.0531 52.9166 60.0531 52.9166Z" fill="url(#paint9_linear_87_426)"/>
<path d="M9.69699 54.2855C9.66328 54.297 4.86806 55.9189 5.54771 50.1192C5.54771 50.1192 4.79208 47.4145 7.37645 46.9861C7.37645 46.9861 8.34952 45.0808 10.7437 46.1313C10.0153 44.7288 9.45526 43.0482 11.3494 42.3684C12.0829 42.1051 12.8998 42.1624 13.6494 42.3755C14.8692 42.7223 16.0202 43.5478 16.439 44.7449C16.8579 45.9419 16.3207 47.485 15.126 47.9104C14.7965 48.0277 14.3639 48.1356 14.3169 48.4821C14.2855 48.7144 14.4604 48.9165 14.6049 49.101C15.1853 49.8422 15.3886 50.9901 14.7685 51.6984C14.2578 52.2817 13.399 52.3731 12.6255 52.4244C11.881 52.4738 11.3164 52.4299 10.7547 52.9468C10.4124 53.2619 10.1315 54.1347 9.69699 54.2855Z" fill="url(#paint10_linear_87_426)"/>
<path d="M20.377 52.1369C20.325 52.0034 20.2745 51.8808 20.2249 51.7755C19.9038 51.0937 19.2684 50.1987 19.2193 49.4541C19.1345 48.1696 20.6154 46.9931 21.7325 46.5865C25.6881 45.1472 29.0548 46.1937 33.0197 46.8531C35.3709 47.2442 38.1765 47.6385 40.4512 46.694C40.4512 46.694 44.0587 50.4089 40.7337 54.0015C40.4411 54.3176 38.8482 54.3551 38.4359 54.4421C33.569 55.4697 28.6844 54.81 23.7498 54.515C23.106 54.4765 22.0429 54.7438 21.4869 54.3089C20.9915 53.9214 20.6608 52.8652 20.377 52.1369Z" fill="url(#paint11_linear_87_426)"/>
<path d="M14.2356 49.9138C14.2356 49.9138 19.5962 46.9773 21.7057 46.755C21.7057 46.755 21.9997 49.6166 20.641 51.4464C20.641 51.4464 15.8602 51.8464 15.0147 52.1525L14.2356 49.9138Z" fill="url(#paint12_linear_87_426)"/>
<path d="M9.32328 54.3556C9.32328 54.3556 16.8438 55.6639 17.32 52.4913C17.7963 49.3187 12.4495 48.384 12.4495 48.384C12.4495 48.384 8.93957 48.929 8.36691 50.3992C7.79419 51.8693 9.32328 54.3556 9.32328 54.3556Z" fill="url(#paint13_linear_87_426)"/>
<path d="M6.46993 50.595C6.46993 50.595 7.34738 52.4977 8.30817 52.595C9.26901 52.6923 9.47804 49.4088 9.34269 48.528L12.8493 47.0874C12.8493 47.0874 8.9968 45.7029 7.18092 46.9269C5.36493 48.1509 6.46993 50.595 6.46993 50.595Z" fill="url(#paint14_linear_87_426)"/>
<path d="M12.3614 49.2252C12.3614 49.2252 10.0582 47.9284 11.2005 46.9965C12.3427 46.0647 13.7466 48.0682 13.2728 48.9557L12.3614 49.2252Z" fill="url(#paint15_linear_87_426)"/>
<path d="M55.0479 55.1486C55.3564 55.2847 61.484 55.6796 62.0708 55.6412L83.8282 53.8572C84.0914 53.8356 84.3554 53.8553 84.6127 53.9146C85.4938 54.1174 87.6193 54.6838 89.2866 55.7443L89.7854 56.3874C89.9531 56.6037 90.297 56.5274 90.3574 56.2604L90.7012 54.7429C90.7789 54.3998 90.6286 54.0443 90.3264 53.8641C88.8242 52.968 87.481 52.0178 86.4116 50.9743C85.8567 50.5438 85.0747 50.5665 84.5458 51.0286L84.2169 51.3159C83.6148 51.7009 82.9066 51.8837 82.1934 51.8382C79.5501 51.6694 72.8491 51.1833 69.8357 50.43C66.411 49.5737 62.2079 51.7886 62.2079 51.7886L60.0507 49.9885L55.0479 55.1486Z" fill="url(#paint16_linear_87_426)"/>
<path d="M38.8294 55.1005C38.8294 55.1005 59.7225 55.914 59.8235 55.671C60.3856 54.3176 60.6961 54.1135 60.6777 47.878C60.6768 47.564 60.4816 47.2884 60.1932 47.2017C58.4574 46.6801 52.3459 45.3053 51.3183 44.5343C48.5987 42.4937 42.1992 41.0895 38.2761 47.0892C39.1357 49.6333 39.5775 52.688 38.8294 55.1005Z" fill="url(#paint17_linear_87_426)"/>
<path d="M24.1403 49.5641C30.2264 50.2339 39.1003 53.3557 48.7157 55.5923C50.9424 55.0386 52.222 55.3296 53.4722 56.0884C53.7353 56.2481 53.5953 56.6531 53.29 56.6143C51.4733 56.3836 49.9481 56.2183 48.7639 56.7984C39.5503 55.2455 30.9927 54.6949 23.2765 54.4302C21.1927 54.0188 20.5383 52.185 21.4926 50.7623C22.0732 49.8967 23.1043 49.45 24.1403 49.5641Z" fill="url(#paint18_linear_87_426)"/>
<path d="M20.7186 49.3084C19.1241 49.3084 17.8269 48.0112 17.8269 46.4167C17.8269 44.8222 19.1241 43.525 20.7186 43.525C22.313 43.525 23.6103 44.8222 23.6103 46.4167C23.6103 48.0112 22.3131 49.3084 20.7186 49.3084ZM20.7186 44.1897C19.4906 44.1897 18.4916 45.1888 18.4916 46.4167C18.4916 47.6446 19.4906 48.6436 20.7186 48.6436C21.9465 48.6436 22.9455 47.6446 22.9455 46.4167C22.9455 45.1888 21.9465 44.1897 20.7186 44.1897Z" fill="url(#paint19_linear_87_426)"/>
<path d="M20.7187 48.0785C21.6365 48.0785 22.3806 47.3345 22.3806 46.4167C22.3806 45.4988 21.6365 44.7548 20.7187 44.7548C19.8008 44.7548 19.0568 45.4988 19.0568 46.4167C19.0568 47.3345 19.8008 48.0785 20.7187 48.0785Z" fill="url(#paint20_linear_87_426)"/>
<path d="M68.6214 53.6199C67.2026 53.6199 66.0483 52.4657 66.0483 51.0469C66.0483 49.6281 67.2026 48.4739 68.6214 48.4739C70.0401 48.4739 71.1944 49.6281 71.1944 51.0469C71.1944 52.4657 70.0401 53.6199 68.6214 53.6199ZM68.6214 49.0653C67.5287 49.0653 66.6398 49.9543 66.6398 51.0469C66.6398 52.1395 67.5287 53.0284 68.6214 53.0284C69.714 53.0284 70.6029 52.1395 70.6029 51.0469C70.6029 49.9543 69.714 49.0653 68.6214 49.0653Z" fill="url(#paint21_linear_87_426)"/>
<path d="M68.6213 52.5256C69.438 52.5256 70.1001 51.8636 70.1001 51.0469C70.1001 50.2302 69.438 49.5681 68.6213 49.5681C67.8046 49.5681 67.1426 50.2302 67.1426 51.0469C67.1426 51.8636 67.8046 52.5256 68.6213 52.5256Z" fill="url(#paint22_linear_87_426)"/>
<path d="M34.4575 44.317C34.9251 44.8712 45.1836 41.603 44.4695 40.6393C45.6092 41.0081 47.0541 42.0438 48.383 44.4556C45.3342 46.5336 37.516 46.9665 35.7857 46.4018C35.4913 46.3058 35.1838 46.265 34.8932 46.3718C34.3055 46.5879 33.2856 46.9288 32.7077 46.926C31.8622 46.9217 31.1094 50.014 29.6359 49.3143C29.6359 49.3143 30.0281 44.0759 34.4575 44.317Z" fill="url(#paint23_linear_87_426)"/>
<path d="M44.4695 40.6393C45.5651 38.6359 41.5039 32.4419 41.5039 32.4419L44.0376 28.1207C44.0376 28.1207 53.5123 38.8405 48.9423 44.2232C48.4585 44.7929 48.2817 44.8759 48.1936 44.5786C47.4865 42.1925 45.3046 41.3725 44.4695 40.6393Z" fill="url(#paint24_linear_87_426)"/>
<path d="M44.5561 40.3282C44.6127 40.3432 44.6744 40.3185 44.7038 40.2647C45.824 38.2164 41.9002 32.1891 41.7327 31.9335C41.6934 31.8735 41.6128 31.8565 41.5523 31.8959C41.4921 31.9354 41.4754 32.0162 41.5147 32.0764C41.5549 32.1376 45.5208 38.2276 44.475 40.1398C44.4405 40.2029 44.4638 40.2821 44.5269 40.3166C44.5363 40.3217 44.5461 40.3256 44.5561 40.3282Z" fill="url(#paint25_linear_87_426)"/>
<path d="M24.9571 44.8282C25.0472 44.7511 25.1369 44.6754 25.2267 44.6024C25.7132 44.2072 26.1998 43.8121 26.6862 43.4167C27.1146 43.0684 27.682 42.956 28.2258 42.8699C28.8178 42.7762 29.4347 42.7874 30.0197 42.6535C30.508 42.5415 31.3649 41.9296 31.8321 41.7585C32.4931 41.5164 33.3092 43.6043 33.4152 43.968C32.5602 44.2674 31.3945 44.4517 30.4931 44.4841C29.9557 44.5048 29.3944 44.5486 28.8792 44.7051C28.8178 44.7238 28.7549 44.7432 28.7047 44.7831C28.518 44.9317 28.5429 45.4058 28.4446 45.6295C28.3328 45.8839 28.1496 46.1623 28.1521 46.4501C28.1521 46.7728 28.3758 47.0943 28.5389 47.3575C28.3075 47.4551 28.0295 47.4338 27.8158 47.3019C27.66 47.2057 27.5422 47.0583 27.447 46.902C27.2868 46.6387 27.2384 45.7442 26.8809 45.6713C26.3936 45.5721 25.7877 46.3121 25.416 46.5533C25.0304 46.8036 24.5668 47.0173 24.1077 46.9604C23.5488 46.8911 23.021 46.8274 22.494 46.6102C22.4905 46.2723 22.522 46.1809 22.8538 46.0759C23.066 46.0087 23.3051 46.0016 23.5065 45.9027C24.0356 45.6425 24.5004 45.219 24.9571 44.8282Z" fill="url(#paint26_linear_87_426)"/>
<path d="M35.1061 50.2595C33.6057 50.2595 32.385 49.0388 32.385 47.5384C32.385 46.0379 33.6057 44.8173 35.1061 44.8173C36.6065 44.8173 37.8272 46.0379 37.8272 47.5384C37.8272 49.0388 36.6065 50.2595 35.1061 50.2595ZM35.1061 45.4428C33.9506 45.4428 33.0105 46.3829 33.0105 47.5384C33.0105 48.6938 33.9506 49.6339 35.1061 49.6339C36.2616 49.6339 37.2017 48.6938 37.2017 47.5384C37.2017 46.3829 36.2616 45.4428 35.1061 45.4428Z" fill="url(#paint27_linear_87_426)"/>
<path d="M35.1061 49.1022C35.9698 49.1022 36.6699 48.402 36.6699 47.5383C36.6699 46.6746 35.9698 45.9745 35.1061 45.9745C34.2424 45.9745 33.5422 46.6746 33.5422 47.5383C33.5422 48.402 34.2424 49.1022 35.1061 49.1022Z" fill="url(#paint28_linear_87_426)"/>
</g>
<defs>
<linearGradient id="paint0_linear_87_426" x1="84.1756" y1="96.9267" x2="17.5834" y2="14.2235" gradientUnits="userSpaceOnUse">
<stop stop-color="#78E1FD"/>
<stop offset="1" stop-color="#6CBCFC"/>
</linearGradient>
<linearGradient id="paint1_linear_87_426" x1="6.13697" y1="65.9648" x2="88.1826" y2="65.9648" gradientUnits="userSpaceOnUse">
<stop stop-color="#4089ED"/>
<stop offset="1" stop-color="#53D8FF"/>
</linearGradient>
<linearGradient id="paint2_linear_87_426" x1="27.6836" y1="45.5786" x2="37.3988" y2="34.3687" gradientUnits="userSpaceOnUse">
<stop stop-color="#F9B776"/>
<stop offset="1" stop-color="#F47960"/>
</linearGradient>
<linearGradient id="paint3_linear_87_426" x1="34.6429" y1="35.4635" x2="59.0567" y2="47.2552" gradientUnits="userSpaceOnUse">
<stop stop-color="#77E1FD"/>
<stop offset="0.9964" stop-color="#67C3F3"/>
</linearGradient>
<linearGradient id="paint4_linear_87_426" x1="37.3904" y1="26.8515" x2="31.9406" y2="25.404" gradientUnits="userSpaceOnUse">
<stop stop-color="#F9B776"/>
<stop offset="1" stop-color="#F47960"/>
</linearGradient>
<linearGradient id="paint5_linear_87_426" x1="30.9146" y1="20.8808" x2="37.116" y2="30.7906" gradientUnits="userSpaceOnUse">
<stop stop-color="#F9B776"/>
<stop offset="1" stop-color="#F47960"/>
</linearGradient>
<linearGradient id="paint6_linear_87_426" x1="36.0794" y1="23.5954" x2="27.6916" y2="22.8544" gradientUnits="userSpaceOnUse">
<stop stop-color="#2B3582"/>
<stop offset="1" stop-color="#150E42"/>
</linearGradient>
<linearGradient id="paint7_linear_87_426" x1="40.5491" y1="29.1459" x2="35.4273" y2="22.8699" gradientUnits="userSpaceOnUse">
<stop stop-color="#F9B776"/>
<stop offset="1" stop-color="#F47960"/>
</linearGradient>
<linearGradient id="paint8_linear_87_426" x1="53.4664" y1="41.736" x2="34.5134" y2="91.0821" gradientUnits="userSpaceOnUse">
<stop stop-color="#458FF6"/>
<stop offset="1" stop-color="#8AE7FD"/>
</linearGradient>
<linearGradient id="paint9_linear_87_426" x1="75.9116" y1="42.5158" x2="74.7191" y2="52.8843" gradientUnits="userSpaceOnUse">
<stop stop-color="#F9B776"/>
<stop offset="1" stop-color="#F47960"/>
</linearGradient>
<linearGradient id="paint10_linear_87_426" x1="4.57435" y1="41.0111" x2="10.4168" y2="47.9694" gradientUnits="userSpaceOnUse">
<stop stop-color="#2B3582"/>
<stop offset="1" stop-color="#150E42"/>
</linearGradient>
<linearGradient id="paint11_linear_87_426" x1="52.5819" y1="39.375" x2="20.9788" y2="55.5308" gradientUnits="userSpaceOnUse">
<stop stop-color="#F9B776"/>
<stop offset="1" stop-color="#F47960"/>
</linearGradient>
<linearGradient id="paint12_linear_87_426" x1="55.1039" y1="31.4153" x2="18.2797" y2="50.2403" gradientUnits="userSpaceOnUse">
<stop stop-color="#F9B776"/>
<stop offset="1" stop-color="#F47960"/>
</linearGradient>
<linearGradient id="paint13_linear_87_426" x1="10.6578" y1="54.2482" x2="18.985" y2="44.1565" gradientUnits="userSpaceOnUse">
<stop stop-color="#F9B776"/>
<stop offset="1" stop-color="#F47960"/>
</linearGradient>
<linearGradient id="paint14_linear_87_426" x1="-3.21938" y1="36.2725" x2="9.18487" y2="48.6245" gradientUnits="userSpaceOnUse">
<stop stop-color="#2B3582"/>
<stop offset="1" stop-color="#150E42"/>
</linearGradient>
<linearGradient id="paint15_linear_87_426" x1="7.77856" y1="51.2403" x2="18.3338" y2="43.5093" gradientUnits="userSpaceOnUse">
<stop stop-color="#F9B776"/>
<stop offset="1" stop-color="#F47960"/>
</linearGradient>
<linearGradient id="paint16_linear_87_426" x1="80.6026" y1="51.6622" x2="50.8969" y2="60.1892" gradientUnits="userSpaceOnUse">
<stop stop-color="#F9B776"/>
<stop offset="1" stop-color="#F47960"/>
</linearGradient>
<linearGradient id="paint17_linear_87_426" x1="62.0169" y1="59.4804" x2="34.3035" y2="40.984" gradientUnits="userSpaceOnUse">
<stop stop-color="#53D8FF"/>
<stop offset="1" stop-color="#5A98F2"/>
</linearGradient>
<linearGradient id="paint18_linear_87_426" x1="37.3323" y1="54.2173" x2="36.433" y2="44.9673" gradientUnits="userSpaceOnUse">
<stop stop-color="#F9B776"/>
<stop offset="1" stop-color="#F47960"/>
</linearGradient>
<linearGradient id="paint19_linear_87_426" x1="25.2401" y1="35.1129" x2="37.7785" y2="3.76675" gradientUnits="userSpaceOnUse">
<stop stop-color="#E40045"/>
<stop offset="1" stop-color="#5C0E16"/>
</linearGradient>
<linearGradient id="paint20_linear_87_426" x1="25.2402" y1="35.1129" x2="37.7786" y2="3.76672" gradientUnits="userSpaceOnUse">
<stop stop-color="#E40045"/>
<stop offset="1" stop-color="#5C0E16"/>
</linearGradient>
<linearGradient id="paint21_linear_87_426" x1="68.1322" y1="52.2698" x2="80.6707" y2="20.9236" gradientUnits="userSpaceOnUse">
<stop stop-color="#E40045"/>
<stop offset="1" stop-color="#5C0E16"/>
</linearGradient>
<linearGradient id="paint22_linear_87_426" x1="68.1322" y1="52.2698" x2="80.6707" y2="20.9235" gradientUnits="userSpaceOnUse">
<stop stop-color="#E40045"/>
<stop offset="1" stop-color="#5C0E16"/>
</linearGradient>
<linearGradient id="paint23_linear_87_426" x1="37.3905" y1="44.6985" x2="61.6141" y2="75.2723" gradientUnits="userSpaceOnUse">
<stop stop-color="#F9B776"/>
<stop offset="1" stop-color="#F47960"/>
</linearGradient>
<linearGradient id="paint24_linear_87_426" x1="36.4444" y1="31.7335" x2="60.8583" y2="43.5252" gradientUnits="userSpaceOnUse">
<stop stop-color="#6DDDFC"/>
<stop offset="0.9964" stop-color="#97C3F9"/>
</linearGradient>
<linearGradient id="paint25_linear_87_426" x1="59.8027" y1="28.4171" x2="36.2908" y2="39.2413" gradientUnits="userSpaceOnUse">
<stop stop-color="#67C3F3"/>
<stop offset="0.9964" stop-color="#323992"/>
</linearGradient>
<linearGradient id="paint26_linear_87_426" x1="27.648" y1="45.4947" x2="37.296" y2="34.3623" gradientUnits="userSpaceOnUse">
<stop stop-color="#F9B776"/>
<stop offset="1" stop-color="#F47960"/>
</linearGradient>
<linearGradient id="paint27_linear_87_426" x1="38.0299" y1="40.2289" x2="50.5684" y2="8.88265" gradientUnits="userSpaceOnUse">
<stop stop-color="#E40045"/>
<stop offset="1" stop-color="#5C0E16"/>
</linearGradient>
<linearGradient id="paint28_linear_87_426" x1="38.0299" y1="40.2288" x2="50.5684" y2="8.88263" gradientUnits="userSpaceOnUse">
<stop stop-color="#E40045"/>
<stop offset="1" stop-color="#5C0E16"/>
</linearGradient>
</defs>
</svg>
