<svg width="75" height="85" viewBox="0 0 75 85" fill="none" xmlns="http://www.w3.org/2000/svg">
<path d="M73.8062 34.1172H72.4501V8.98112C72.4501 4.29817 67.1294 0.486822 60.5822 0.47483H60.5503C54.0031 0.486822 48.6824 4.29817 48.6824 8.98112V73.9594C48.6824 79.0339 42.9066 83.1626 35.8079 83.1626H35.7842C28.6852 83.1626 22.9097 79.0339 22.9097 73.9594V59.1289C24.1814 58.7643 25.0795 57.8766 25.0795 56.8375V52.0325H25.1144C35.1298 52.0325 43.249 46.2284 43.249 39.069V13.9358C43.249 9.70269 38.4481 6.27083 32.5261 6.27083H30.8417C30.6037 2.77917 26.5682 0 21.6244 0C16.6805 0 12.645 2.77917 12.4073 6.27083H10.7226C4.80066 6.27083 0 9.70269 0 13.9358V39.069C0 46.2284 8.11896 52.0325 18.1345 52.0325H18.169V56.8375C18.169 57.8766 19.068 58.7642 20.3391 59.1289V73.9594C20.3391 80.0472 27.2675 85 35.7841 85H35.8078C44.3243 85 51.2527 80.0472 51.2527 73.9594V8.98112C51.2527 5.30766 55.4293 2.31844 60.5663 2.31221C65.7029 2.31844 69.8797 5.30766 69.8797 8.98112V34.1172H68.491C67.8318 34.1172 67.2972 34.4994 67.2972 34.9706V44.0442C67.2972 45.5646 69.0214 46.7971 71.1485 46.7971C73.2755 46.7971 75 45.5646 75 44.0442V34.9706C75 34.4994 74.4657 34.1172 73.8062 34.1172ZM17.013 6.27083C17.0753 4.48785 19.1155 3.05595 21.6244 3.05595C24.1336 3.05595 26.1735 4.48785 26.2358 6.27083H17.013Z" fill="url(#paint0_linear_86_342)"/>
<path d="M60.5822 1.08745L60.5503 1.08728V1.08745C54.4761 1.09978 49.5394 4.63632 49.5394 8.98115V73.9595C49.5394 79.3718 43.3794 83.7752 35.8079 83.7752H35.7843C28.2128 83.7752 22.0528 79.3718 22.0528 73.9595V59.2865C23.7586 59.1353 25.0796 58.0975 25.0796 56.8376V52.0325H23.8207V56.2999C23.8207 57.0624 23.0596 57.6977 22.0512 57.8397C21.9824 57.8494 21.9127 57.8568 21.8417 57.862C21.8304 57.8629 21.8189 57.8627 21.8074 57.8633C21.747 57.867 21.6862 57.8697 21.6244 57.8697C21.5552 57.8697 21.4869 57.8671 21.4196 57.8623C21.4157 57.8622 21.4113 57.8622 21.4074 57.862C21.3366 57.8567 21.2671 57.8493 21.1986 57.8398C20.1897 57.6978 19.4284 57.0627 19.4284 56.2999V52.0325H18.1691V56.8375C18.1691 58.0975 19.4905 59.1353 21.1961 59.2865V73.9594C21.1961 79.7095 27.7403 84.3874 35.7843 84.3874H35.8079C43.8519 84.3874 50.3958 79.7095 50.3958 73.9594V8.98115C50.3958 4.96995 54.9569 1.70593 60.5664 1.69983C66.1759 1.70593 70.7363 4.96995 70.7363 8.98115V34.1166H71.5932V8.98115C71.5932 4.63632 66.6564 1.09978 60.5822 1.08745Z" fill="#80C2EC"/>
<path d="M24.8767 50.4747H18.3723C9.03849 50.4747 1.47229 45.0659 1.47229 38.3941V14.9716C1.47229 11.0267 5.94598 7.82861 11.4649 7.82861H31.784C37.3029 7.82861 41.7766 11.0267 41.7766 14.9716V38.394C41.7766 45.0659 34.2104 50.4747 24.8767 50.4747Z" fill="url(#paint1_linear_86_342)"/>
<path d="M60.5822 1.08745L60.5502 1.08728V1.08745C54.4761 1.09995 49.5393 4.63632 49.5393 8.98115V73.9595C49.5393 79.3718 43.3794 83.7752 35.8079 83.7752H35.7842C28.2127 83.7752 22.0528 79.3718 22.0528 73.9595V57.8394C22.0521 57.8397 22.0514 57.8397 22.0505 57.8399C23.0594 57.6979 23.8207 57.0628 23.8207 56.3V50.4747H24.8767C34.2103 50.4747 41.7765 45.0659 41.7765 38.3941V28.1336C40.6427 28.3357 39.4524 28.3275 38.2929 28.0588C37.1494 27.7935 36.1805 27.3208 35.2291 26.8085C34.3621 26.3415 33.5168 25.8527 32.6265 25.4083C32.3792 25.2847 32.1267 25.1667 31.8701 25.0546V22.0845C31.8701 20.8307 30.4483 19.8143 28.6944 19.8143H14.5546C12.8004 19.8143 11.3788 20.8307 11.3788 22.0845V27.6022C10.2632 27.1862 9.17795 26.7267 8.06212 26.312C6.58206 25.7624 4.91946 25.2065 3.2079 25.2958C2.56825 25.3293 1.99183 25.4674 1.4722 25.6772V38.3941C1.4722 45.0659 9.03839 50.4747 18.3722 50.4747H19.4283V56.3C19.4283 57.0636 20.1914 57.6995 21.2024 57.84C21.2001 57.8399 21.1981 57.8399 21.196 57.8394V73.9595C21.196 79.7096 27.7402 84.3875 35.7842 84.3875H35.8078C43.8518 84.3875 50.3957 79.7096 50.3957 73.9595V8.98115C50.3957 4.96994 54.9568 1.70593 60.5663 1.69983C66.1758 1.70593 70.7362 4.96994 70.7362 8.98115V34.1166H71.5931V8.98115C71.5931 4.63632 66.6564 1.09995 60.5822 1.08745Z" fill="url(#paint2_linear_86_342)"/>
<path d="M19.4284 50.4747V56.3C19.4284 57.167 20.4116 57.8698 21.6245 57.8698C22.8375 57.8698 23.8207 57.167 23.8207 56.3V50.4747H19.4284Z" fill="#458DFC"/>
<path d="M60.5822 0.474823H60.5503C54.0031 0.486815 48.6824 4.29816 48.6824 8.98111V73.9594C48.6824 79.0339 42.9066 83.1626 35.8079 83.1626H35.7842C28.6852 83.1626 22.9097 79.0339 22.9097 73.9594V59.1289C22.6393 59.2065 22.3516 59.259 22.0527 59.2858V57.8393C21.914 57.859 21.7708 57.8697 21.6244 57.8697C21.4777 57.8697 21.3347 57.859 21.196 57.8393V59.2858C20.8971 59.259 20.6095 59.2064 20.3391 59.1289V73.9594C20.3391 80.0472 27.2675 85 35.7841 85H35.8078C44.3243 85 51.2527 80.0472 51.2527 73.9594V8.98111C51.2527 5.30765 55.4293 2.31843 60.5663 2.31221C65.7029 2.31843 69.8797 5.30765 69.8797 8.98111V34.1165H72.4501V8.98111C72.4501 4.2982 67.1294 0.486815 60.5822 0.474823Z" fill="url(#paint3_linear_86_342)"/>
<path d="M17.013 6.27082C17.0754 4.48801 19.1155 3.05612 21.6245 3.05612C24.1336 3.05612 26.1735 4.48801 26.2359 6.27082H30.8418C30.6038 2.77917 26.5683 0 21.6245 0C16.6806 0 12.6451 2.77917 12.4074 6.27082H17.013Z" fill="url(#paint4_linear_86_342)"/>
<path d="M11.3789 22.0844V36.2188C11.3789 37.4725 12.8005 38.4891 14.5546 38.4891H28.6944C30.4483 38.4891 31.8702 37.4725 31.8702 36.2188V22.0844C31.8702 20.8307 30.4483 19.8143 28.6944 19.8143H14.5546C12.8005 19.8143 11.3789 20.8307 11.3789 22.0844Z" fill="#CDE1F3"/>
<path d="M27.6997 37.7612H15.5488C13.8559 37.7612 12.4784 36.7394 12.4784 35.4833V22.8199C12.4784 21.5638 13.8559 20.5418 15.5488 20.5418H27.6998C29.3932 20.5418 30.7705 21.5638 30.7705 22.8199V35.4833C30.7704 36.7394 29.3932 37.7612 27.6997 37.7612ZM15.5488 21.03C14.2325 21.03 13.1612 21.8329 13.1612 22.8199V35.4833C13.1612 36.4702 14.2325 37.2731 15.5488 37.2731H27.6998C29.0166 37.2731 30.0875 36.4702 30.0875 35.4833V22.8199C30.0875 21.8329 29.0166 21.03 27.6998 21.03H15.5488Z" fill="#4089ED"/>
<path d="M24.7726 27.3283H22.7276V25.4874C22.7276 24.6285 21.9541 23.9321 21 23.9321C20.0459 23.9321 19.2724 24.6285 19.2724 25.4874V27.3283H17.2276C16.2735 27.3283 15.5 28.0246 15.5 28.8835C15.5 29.7424 16.2735 30.4387 17.2276 30.4387H19.2724V32.2798C19.2724 33.1387 20.0459 33.835 21 33.835C21.9541 33.835 22.7276 33.1387 22.7276 32.2798V30.4387H24.7726C25.7267 30.4387 26.5 29.7424 26.5 28.8835C26.5 28.0246 25.7267 27.3283 24.7726 27.3283Z" fill="url(#paint5_linear_86_342)"/>
<path d="M60.5822 1.08745L60.5503 1.08728V1.08745C54.4761 1.09995 49.5393 4.63632 49.5393 8.98115V73.9595C49.5393 79.3718 43.3794 83.7752 35.8079 83.7752H35.7842C28.2127 83.7752 22.0528 79.3718 22.0528 73.9595V57.8393C21.9141 57.8591 21.7712 57.8698 21.6245 57.8698C21.4778 57.8698 21.3348 57.8591 21.1961 57.8393V73.9595C21.1961 79.7096 27.7403 84.3875 35.7843 84.3875H35.808C43.8519 84.3875 50.3959 79.7096 50.3959 73.9595V8.98115C50.3959 4.96995 54.9569 1.70593 60.5664 1.69983C66.176 1.70593 70.7363 4.96995 70.7363 8.98115V34.1166H71.5933V8.98115C71.5932 4.63632 66.6564 1.09995 60.5822 1.08745Z" fill="#0087CA"/>
<defs>
<linearGradient id="paint0_linear_86_342" x1="37.5" y1="0" x2="37.5" y2="85" gradientUnits="userSpaceOnUse">
<stop stop-color="#BADCF5"/>
<stop offset="1" stop-color="#5A98F2"/>
</linearGradient>
<linearGradient id="paint1_linear_86_342" x1="21.6245" y1="7.82861" x2="21.6245" y2="50.4747" gradientUnits="userSpaceOnUse">
<stop stop-color="#67C3F3"/>
<stop offset="0.547073" stop-color="#60ABF2"/>
<stop offset="1" stop-color="#5A98F2"/>
</linearGradient>
<linearGradient id="paint2_linear_86_342" x1="36.5327" y1="1.08728" x2="36.5327" y2="84.3875" gradientUnits="userSpaceOnUse">
<stop stop-color="#599FD6"/>
<stop offset="1" stop-color="#5A98F2"/>
</linearGradient>
<linearGradient id="paint3_linear_86_342" x1="46.3946" y1="0.474823" x2="46.3946" y2="85" gradientUnits="userSpaceOnUse">
<stop stop-color="#69DCFC"/>
<stop offset="1" stop-color="#5A98F2"/>
</linearGradient>
<linearGradient id="paint4_linear_86_342" x1="21.6246" y1="0" x2="21.6246" y2="6.27082" gradientUnits="userSpaceOnUse">
<stop stop-color="#458FF6"/>
<stop offset="1" stop-color="#5A98F2"/>
</linearGradient>
<linearGradient id="paint5_linear_86_342" x1="21" y1="23.9321" x2="21" y2="33.835" gradientUnits="userSpaceOnUse">
<stop stop-color="#67C3F3"/>
<stop offset="1" stop-color="#5A98F2"/>
</linearGradient>
</defs>
</svg>
