<svg width="75" height="75" viewBox="0 0 75 75" fill="none" xmlns="http://www.w3.org/2000/svg">
<g clip-path="url(#clip0_23_156)">
<path d="M45.8388 36.0918L38.4366 43.3119L7.17817 73.7966C6.35754 74.5989 5.30482 75 4.25209 75C3.0999 75 1.94771 74.5221 1.1105 73.5747C-0.539041 71.7143 -0.323522 68.804 1.5747 67.2166L38.4366 36.5185L42.4983 33.1389L45.8388 36.0918Z" fill="url(#paint0_linear_23_156)"/>
<path d="M38.1132 43.6789L30.8271 50.7795L30.1556 43.4826L34.1427 40.1627L38.1132 43.6789Z" fill="#3A81D6" fill-opacity="0.8"/>
<path d="M75 24.9203C75 38.6863 64.1578 49.8492 50.7957 49.8492C42.3739 49.8492 34.9551 45.4199 30.6198 38.6948C28.0751 34.7519 26.5913 30.0154 26.5913 24.9203C26.5913 11.1544 37.4335 0 50.7957 0C56.8302 0 62.3425 2.27014 66.5782 6.02526C71.7341 10.5997 75 17.3674 75 24.9203Z" fill="url(#paint1_linear_23_156)"/>
<path d="M50.7956 44.336C61.2105 44.336 69.6535 35.6433 69.6535 24.9203C69.6535 14.1973 61.2105 5.50464 50.7956 5.50464C40.3807 5.50464 31.9378 14.1973 31.9378 24.9203C31.9378 35.6433 40.3807 44.336 50.7956 44.336Z" fill="white"/>
<path opacity="0.06" d="M75 24.9203C75 38.6862 64.1578 49.8492 50.7957 49.8492C42.3739 49.8492 34.9551 45.4199 30.6198 38.6948C57.916 36.4076 65.111 12.5967 66.5865 6.02524C71.7341 10.5997 75 17.3674 75 24.9203Z" fill="#1A6FB5" fill-opacity="0.5"/>
<path d="M51.8652 24.3701C54.4514 24.3701 56.5478 22.2726 56.5478 19.685C56.5478 17.0975 54.4514 15 51.8652 15C49.279 15 47.1826 17.0975 47.1826 19.685C47.1826 22.2726 49.2692 24.3701 51.8652 24.3701ZM51.8652 26.7126C48.7402 26.7126 42.5 28.2808 42.5 31.3977V32.5738C42.5 33.2207 43.029 33.75 43.6755 33.75H60.0745C60.721 33.75 61.25 33.2207 61.25 32.5738V31.3977C61.2304 28.2906 54.9902 26.7126 51.8652 26.7126Z" fill="url(#paint2_linear_23_156)"/>
</g>
<defs>
<linearGradient id="paint0_linear_23_156" x1="4.62701" y1="70.2641" x2="44.7322" y2="34.8523" gradientUnits="userSpaceOnUse">
<stop stop-color="#67C3F3"/>
<stop offset="1" stop-color="#5A98F2"/>
</linearGradient>
<linearGradient id="paint1_linear_23_156" x1="40.7846" y1="1.76093" x2="60.0251" y2="43.7722" gradientUnits="userSpaceOnUse">
<stop stop-color="#67C3F3"/>
<stop offset="1" stop-color="#5A98F2"/>
</linearGradient>
<linearGradient id="paint2_linear_23_156" x1="45.0945" y1="22.8731" x2="62.0587" y2="31.1428" gradientUnits="userSpaceOnUse">
<stop stop-color="#B0F4FF"/>
<stop offset="0.071077" stop-color="#A6F1FF"/>
<stop offset="0.2937" stop-color="#8BE8FD"/>
<stop offset="0.5209" stop-color="#78E1FD"/>
<stop offset="0.7536" stop-color="#6DDDFC"/>
<stop offset="1" stop-color="#69DCFC"/>
</linearGradient>
<clipPath id="clip0_23_156">
<rect width="75" height="75" fill="white"/>
</clipPath>
</defs>
</svg>
